<svg width="196" height="91" viewBox="0 0 196 91" fill="none" xmlns="http://www.w3.org/2000/svg">
<path d="M2.64205 71.155V36.2459H17.0625C19.6761 36.2459 21.9318 36.7175 23.8295 37.6606C25.7386 38.5925 27.2102 39.9334 28.2443 41.6834C29.2784 43.422 29.7955 45.4845 29.7955 47.8709C29.7955 50.2913 29.267 52.3481 28.2102 54.0413C27.1534 55.7231 25.6534 57.0072 23.7102 57.8936C21.767 58.7686 19.4659 59.2061 16.8068 59.2061H7.6875V52.5584H15.2386C16.5114 52.5584 17.5739 52.3936 18.4261 52.0641C19.2898 51.7231 19.9432 51.2118 20.3864 50.53C20.8295 49.8368 21.0511 48.9504 21.0511 47.8709C21.0511 46.7913 20.8295 45.8993 20.3864 45.1947C19.9432 44.4788 19.2898 43.9447 18.4261 43.5925C17.5625 43.2288 16.5 43.047 15.2386 43.047H11.0795V71.155H2.64205ZM22.2955 55.2004L30.9886 71.155H21.7841L13.2614 55.2004H22.2955ZM46.1463 71.6493C43.4077 71.6493 41.044 71.1095 39.0554 70.03C37.0781 68.9391 35.5554 67.3879 34.4872 65.3766C33.4304 63.3538 32.902 60.9504 32.902 58.1663C32.902 55.4618 33.4361 53.0981 34.5043 51.0754C35.5724 49.0413 37.0781 47.4618 39.0213 46.3368C40.9645 45.2004 43.2543 44.6322 45.8906 44.6322C47.7543 44.6322 49.4588 44.922 51.0043 45.5016C52.5497 46.0811 53.8849 46.9391 55.0099 48.0754C56.1349 49.2118 57.0099 50.6152 57.6349 52.2856C58.2599 53.9447 58.5724 55.8481 58.5724 57.9959V60.0754H35.8168V55.2345H50.8168C50.8054 54.3481 50.5952 53.5584 50.1861 52.8652C49.777 52.172 49.2145 51.6322 48.4986 51.2459C47.794 50.8481 46.9815 50.6493 46.0611 50.6493C45.1293 50.6493 44.294 50.8595 43.5554 51.28C42.8168 51.6891 42.2315 52.2516 41.7997 52.9675C41.3679 53.672 41.1406 54.4731 41.1179 55.3709V60.297C41.1179 61.3652 41.3281 62.3027 41.7486 63.1095C42.169 63.905 42.7656 64.5243 43.5384 64.9675C44.3111 65.4107 45.2315 65.6322 46.2997 65.6322C47.0384 65.6322 47.7088 65.53 48.3111 65.3254C48.9134 65.1209 49.4304 64.8197 49.8622 64.422C50.294 64.0243 50.6179 63.5356 50.8338 62.9561L58.4872 63.1777C58.169 64.8936 57.4702 66.3879 56.3906 67.6607C55.3224 68.922 53.919 69.905 52.1804 70.6095C50.4418 71.3027 48.4304 71.6493 46.1463 71.6493ZM75.0511 71.6493C72.2898 71.6493 69.9205 71.0811 67.9432 69.9447C65.9773 68.8084 64.4659 67.2288 63.4091 65.2061C62.3523 63.172 61.8239 60.8197 61.8239 58.1493C61.8239 55.4675 62.3523 53.1152 63.4091 51.0925C64.4773 49.0584 65.9943 47.4731 67.9602 46.3368C69.9375 45.2004 72.2955 44.6322 75.0341 44.6322C77.4545 44.6322 79.5625 45.0697 81.358 45.9447C83.1648 46.8197 84.5739 48.0584 85.5852 49.6606C86.608 51.2516 87.1477 53.1209 87.2045 55.2686H79.4148C79.2557 53.9277 78.8011 52.8766 78.0511 52.1152C77.3125 51.3538 76.3466 50.9731 75.1534 50.9731C74.1875 50.9731 73.3409 51.2459 72.6136 51.7913C71.8864 52.3254 71.3182 53.1209 70.9091 54.1777C70.5114 55.2231 70.3125 56.5186 70.3125 58.0641C70.3125 59.6095 70.5114 60.9163 70.9091 61.9845C71.3182 63.0413 71.8864 63.8425 72.6136 64.3879C73.3409 64.922 74.1875 65.1891 75.1534 65.1891C75.9261 65.1891 76.608 65.0243 77.1989 64.6947C77.8011 64.3652 78.2955 63.8822 78.6818 63.2459C79.0682 62.5982 79.3125 61.8141 79.4148 60.8936H87.2045C87.125 63.0527 86.5852 64.9391 85.5852 66.5527C84.5966 68.1663 83.2045 69.422 81.4091 70.3197C79.625 71.2061 77.5057 71.6493 75.0511 71.6493ZM103.692 71.6493C100.942 71.6493 98.5781 71.0868 96.6009 69.9618C94.6349 68.8254 93.1179 67.2459 92.0497 65.2232C90.9929 63.1891 90.4645 60.8311 90.4645 58.1493C90.4645 55.4561 90.9929 53.0981 92.0497 51.0754C93.1179 49.0413 94.6349 47.4618 96.6009 46.3368C98.5781 45.2004 100.942 44.6322 103.692 44.6322C106.442 44.6322 108.8 45.2004 110.766 46.3368C112.743 47.4618 114.26 49.0413 115.317 51.0754C116.385 53.0981 116.919 55.4561 116.919 58.1493C116.919 60.8311 116.385 63.1891 115.317 65.2232C114.26 67.2459 112.743 68.8254 110.766 69.9618C108.8 71.0868 106.442 71.6493 103.692 71.6493ZM103.743 65.3595C104.743 65.3595 105.589 65.0527 106.283 64.4391C106.976 63.8254 107.504 62.9732 107.868 61.8822C108.243 60.7913 108.43 59.53 108.43 58.0981C108.43 56.6436 108.243 55.3709 107.868 54.28C107.504 53.1891 106.976 52.3368 106.283 51.7231C105.589 51.1095 104.743 50.8027 103.743 50.8027C102.709 50.8027 101.834 51.1095 101.118 51.7231C100.413 52.3368 99.8736 53.1891 99.4986 54.28C99.1349 55.3709 98.9531 56.6436 98.9531 58.0981C98.9531 59.53 99.1349 60.7913 99.4986 61.8822C99.8736 62.9732 100.413 63.8254 101.118 64.4391C101.834 65.0527 102.709 65.3595 103.743 65.3595ZM121.189 71.155V44.9731H129.286V49.7459H129.558C130.036 48.0186 130.814 46.7345 131.893 45.8936C132.973 45.0413 134.229 44.6152 135.661 44.6152C136.047 44.6152 136.445 44.6436 136.854 44.7004C137.263 44.7459 137.643 44.8197 137.996 44.922V52.1663C137.598 52.03 137.075 51.922 136.428 51.8425C135.791 51.7629 135.223 51.7231 134.723 51.7231C133.734 51.7231 132.842 51.9447 132.047 52.3879C131.263 52.8197 130.643 53.4277 130.189 54.2118C129.746 54.9845 129.524 55.8936 129.524 56.9391V71.155H121.189ZM149.595 71.53C147.663 71.53 145.908 71.03 144.328 70.03C142.749 69.03 141.487 67.53 140.544 65.53C139.601 63.53 139.129 61.047 139.129 58.0811C139.129 55.0016 139.618 52.4675 140.595 50.4788C141.572 48.4902 142.851 47.0186 144.43 46.0641C146.021 45.1095 147.732 44.6322 149.561 44.6322C150.936 44.6322 152.112 44.8709 153.089 45.3481C154.067 45.8141 154.874 46.4163 155.51 47.155C156.146 47.8936 156.629 48.6606 156.959 49.4561H157.129V36.2459H165.464V71.155H157.214V66.9107H156.959C156.607 67.7175 156.107 68.4732 155.459 69.1777C154.811 69.8822 153.999 70.4504 153.021 70.8822C152.055 71.3141 150.913 71.53 149.595 71.53ZM152.493 65.0357C153.504 65.0357 154.368 64.7516 155.084 64.1834C155.8 63.6038 156.351 62.7913 156.737 61.7459C157.124 60.7004 157.317 59.4731 157.317 58.0641C157.317 56.6322 157.124 55.3993 156.737 54.3652C156.362 53.3311 155.811 52.5356 155.084 51.9788C154.368 51.422 153.504 51.1436 152.493 51.1436C151.459 51.1436 150.584 51.4277 149.868 51.9959C149.152 52.5641 148.607 53.3652 148.232 54.3993C147.868 55.4334 147.686 56.655 147.686 58.0641C147.686 59.4731 147.874 60.7004 148.249 61.7459C148.624 62.7913 149.163 63.6038 149.868 64.1834C150.584 64.7516 151.459 65.0357 152.493 65.0357ZM193.594 52.9675L185.94 53.172C185.861 52.6266 185.645 52.1436 185.293 51.7231C184.94 51.2913 184.48 50.9561 183.912 50.7175C183.355 50.4675 182.707 50.3425 181.969 50.3425C181.003 50.3425 180.179 50.5356 179.497 50.922C178.827 51.3084 178.497 51.8311 178.509 52.4902C178.497 53.0016 178.702 53.4447 179.122 53.8197C179.554 54.1947 180.321 54.4959 181.423 54.7231L186.469 55.6777C189.082 56.1777 191.026 57.0072 192.298 58.1663C193.582 59.3254 194.23 60.8595 194.241 62.7686C194.23 64.5641 193.696 66.1266 192.639 67.4561C191.594 68.7857 190.162 69.8197 188.344 70.5584C186.526 71.2857 184.446 71.6493 182.105 71.6493C178.366 71.6493 175.418 70.8822 173.259 69.3482C171.111 67.8027 169.884 65.7345 169.577 63.1436L177.81 62.9391C177.991 63.8936 178.463 64.6209 179.224 65.1209C179.986 65.6209 180.957 65.8709 182.139 65.8709C183.207 65.8709 184.077 65.672 184.747 65.2743C185.418 64.8766 185.759 64.3481 185.77 63.6891C185.759 63.0981 185.497 62.6266 184.986 62.2743C184.474 61.9107 183.673 61.6266 182.582 61.422L178.014 60.5527C175.389 60.0754 173.435 59.1947 172.151 57.9106C170.866 56.6152 170.23 54.9675 170.241 52.9675C170.23 51.2175 170.696 49.7231 171.639 48.4845C172.582 47.2345 173.923 46.28 175.662 45.6209C177.401 44.9618 179.452 44.6322 181.815 44.6322C185.361 44.6322 188.156 45.3766 190.202 46.8652C192.247 48.3425 193.378 50.3766 193.594 52.9675Z" fill="white"/>
<rect x="0.5" y="1.30368" width="15" height="15" rx="3.5" fill="#18181B" stroke="#27272A"/>
<rect x="20.5" y="1.30368" width="15" height="15" rx="3.5" fill="#4C1D95" stroke="#6D28D9"/>
<rect x="40.5" y="1.30368" width="15" height="15" rx="3.5" fill="#5B21B6" stroke="#7C3AED"/>
<rect x="60.5" y="1.30368" width="15" height="15" rx="3.5" fill="#6D28D9" stroke="#8B5CF6"/>
<rect x="80.5" y="1.30368" width="15" height="15" rx="3.5" fill="#7C3AED" stroke="#A78BFA"/>
<rect x="100.5" y="1.30368" width="15" height="15" rx="3.5" fill="#8B5CF6" stroke="#C4B5FD"/>
</svg>
