<svg width="197" height="141" viewBox="0 0 197 141" fill="none" xmlns="http://www.w3.org/2000/svg">
        <path d="M2.64205 71.3099V36.4008H17.0625C19.6761 36.4008 21.9318 36.8724 23.8295 37.8156C25.7386 38.7474 27.2102 40.0883 28.2443 41.8383C29.2784 43.577 29.7955 45.6395 29.7955 48.0258C29.7955 50.4463 29.267 52.5031 28.2102 54.1963C27.1534 55.8781 25.6534 57.1622 23.7102 58.0486C21.767 58.9236 19.4659 59.3611 16.8068 59.3611H7.6875V52.7133H15.2386C16.5114 52.7133 17.5739 52.5486 18.4261 52.219C19.2898 51.8781 19.9432 51.3667 20.3864 50.6849C20.8295 49.9917 21.0511 49.1054 21.0511 48.0258C21.0511 46.9463 20.8295 46.0542 20.3864 45.3497C19.9432 44.6338 19.2898 44.0997 18.4261 43.7474C17.5625 43.3838 16.5 43.202 15.2386 43.202H11.0795V71.3099H2.64205ZM22.2955 55.3554L30.9886 71.3099H21.7841L13.2614 55.3554H22.2955ZM46.1463 71.8042C43.4077 71.8042 41.044 71.2645 39.0554 70.1849C37.0781 69.094 35.5554 67.5429 34.4872 65.5315C33.4304 63.5088 32.902 61.1054 32.902 58.3213C32.902 55.6167 33.4361 53.2531 34.5043 51.2304C35.5724 49.1963 37.0781 47.6167 39.0213 46.4917C40.9645 45.3554 43.2543 44.7872 45.8906 44.7872C47.7543 44.7872 49.4588 45.077 51.0043 45.6565C52.5497 46.2361 53.8849 47.094 55.0099 48.2304C56.1349 49.3667 57.0099 50.7701 57.6349 52.4406C58.2599 54.0997 58.5724 56.0031 58.5724 58.1508V60.2304H35.8168V55.3895H50.8168C50.8054 54.5031 50.5952 53.7133 50.1861 53.0201C49.777 52.327 49.2145 51.7872 48.4986 51.4008C47.794 51.0031 46.9815 50.8042 46.0611 50.8042C45.1293 50.8042 44.294 51.0145 43.5554 51.4349C42.8168 51.844 42.2315 52.4065 41.7997 53.1224C41.3679 53.827 41.1406 54.6281 41.1179 55.5258V60.452C41.1179 61.5201 41.3281 62.4576 41.7486 63.2645C42.169 64.0599 42.7656 64.6792 43.5384 65.1224C44.3111 65.5656 45.2315 65.7872 46.2997 65.7872C47.0384 65.7872 47.7088 65.6849 48.3111 65.4804C48.9134 65.2758 49.4304 64.9747 49.8622 64.577C50.294 64.1792 50.6179 63.6906 50.8338 63.1111L58.4872 63.3326C58.169 65.0486 57.4702 66.5429 56.3906 67.8156C55.3224 69.077 53.919 70.0599 52.1804 70.7645C50.4418 71.4576 48.4304 71.8042 46.1463 71.8042ZM75.0511 71.8042C72.2898 71.8042 69.9205 71.2361 67.9432 70.0997C65.9773 68.9633 64.4659 67.3838 63.4091 65.3611C62.3523 63.327 61.8239 60.9747 61.8239 58.3042C61.8239 55.6224 62.3523 53.2701 63.4091 51.2474C64.4773 49.2133 65.9943 47.6281 67.9602 46.4917C69.9375 45.3554 72.2955 44.7872 75.0341 44.7872C77.4545 44.7872 79.5625 45.2247 81.358 46.0997C83.1648 46.9747 84.5739 48.2133 85.5852 49.8156C86.608 51.4065 87.1477 53.2758 87.2045 55.4236H79.4148C79.2557 54.0826 78.8011 53.0315 78.0511 52.2701C77.3125 51.5088 76.3466 51.1281 75.1534 51.1281C74.1875 51.1281 73.3409 51.4008 72.6136 51.9463C71.8864 52.4804 71.3182 53.2758 70.9091 54.3326C70.5114 55.3781 70.3125 56.6736 70.3125 58.219C70.3125 59.7645 70.5114 61.0713 70.9091 62.1395C71.3182 63.1963 71.8864 63.9974 72.6136 64.5429C73.3409 65.077 74.1875 65.344 75.1534 65.344C75.9261 65.344 76.608 65.1792 77.1989 64.8497C77.8011 64.5201 78.2955 64.0372 78.6818 63.4008C79.0682 62.7531 79.3125 61.969 79.4148 61.0486H87.2045C87.125 63.2076 86.5852 65.094 85.5852 66.7076C84.5966 68.3213 83.2045 69.577 81.4091 70.4747C79.625 71.3611 77.5057 71.8042 75.0511 71.8042ZM103.692 71.8042C100.942 71.8042 98.5781 71.2417 96.6009 70.1167C94.6349 68.9804 93.1179 67.4008 92.0497 65.3781C90.9929 63.344 90.4645 60.9861 90.4645 58.3042C90.4645 55.6111 90.9929 53.2531 92.0497 51.2304C93.1179 49.1963 94.6349 47.6167 96.6009 46.4917C98.5781 45.3554 100.942 44.7872 103.692 44.7872C106.442 44.7872 108.8 45.3554 110.766 46.4917C112.743 47.6167 114.26 49.1963 115.317 51.2304C116.385 53.2531 116.919 55.6111 116.919 58.3042C116.919 60.9861 116.385 63.344 115.317 65.3781C114.26 67.4008 112.743 68.9804 110.766 70.1167C108.8 71.2417 106.442 71.8042 103.692 71.8042ZM103.743 65.5145C104.743 65.5145 105.589 65.2076 106.283 64.594C106.976 63.9804 107.504 63.1281 107.868 62.0372C108.243 60.9463 108.43 59.6849 108.43 58.2531C108.43 56.7986 108.243 55.5258 107.868 54.4349C107.504 53.344 106.976 52.4917 106.283 51.8781C105.589 51.2645 104.743 50.9576 103.743 50.9576C102.709 50.9576 101.834 51.2645 101.118 51.8781C100.413 52.4917 99.8736 53.344 99.4986 54.4349C99.1349 55.5258 98.9531 56.7986 98.9531 58.2531C98.9531 59.6849 99.1349 60.9463 99.4986 62.0372C99.8736 63.1281 100.413 63.9804 101.118 64.594C101.834 65.2076 102.709 65.5145 103.743 65.5145ZM121.189 71.3099V45.1281H129.286V49.9008H129.558C130.036 48.1736 130.814 46.8895 131.893 46.0486C132.973 45.1963 134.229 44.7701 135.661 44.7701C136.047 44.7701 136.445 44.7986 136.854 44.8554C137.263 44.9008 137.643 44.9747 137.996 45.077V52.3213C137.598 52.1849 137.075 52.077 136.428 51.9974C135.791 51.9179 135.223 51.8781 134.723 51.8781C133.734 51.8781 132.842 52.0997 132.047 52.5429C131.263 52.9747 130.643 53.5826 130.189 54.3667C129.746 55.1395 129.524 56.0486 129.524 57.094V71.3099H121.189ZM149.595 71.6849C147.663 71.6849 145.908 71.1849 144.328 70.1849C142.749 69.1849 141.487 67.6849 140.544 65.6849C139.601 63.6849 139.129 61.202 139.129 58.2361C139.129 55.1565 139.618 52.6224 140.595 50.6338C141.572 48.6451 142.851 47.1736 144.43 46.219C146.021 45.2645 147.732 44.7872 149.561 44.7872C150.936 44.7872 152.112 45.0258 153.089 45.5031C154.067 45.969 154.874 46.5713 155.51 47.3099C156.146 48.0486 156.629 48.8156 156.959 49.6111H157.129V36.4008H165.464V71.3099H157.214V67.0656H156.959C156.607 67.8724 156.107 68.6281 155.459 69.3326C154.811 70.0372 153.999 70.6054 153.021 71.0372C152.055 71.469 150.913 71.6849 149.595 71.6849ZM152.493 65.1906C153.504 65.1906 154.368 64.9065 155.084 64.3383C155.8 63.7588 156.351 62.9463 156.737 61.9008C157.124 60.8554 157.317 59.6281 157.317 58.219C157.317 56.7872 157.124 55.5542 156.737 54.5201C156.362 53.4861 155.811 52.6906 155.084 52.1338C154.368 51.577 153.504 51.2986 152.493 51.2986C151.459 51.2986 150.584 51.5826 149.868 52.1508C149.152 52.719 148.607 53.5201 148.232 54.5542C147.868 55.5883 147.686 56.8099 147.686 58.219C147.686 59.6281 147.874 60.8554 148.249 61.9008C148.624 62.9463 149.163 63.7588 149.868 64.3383C150.584 64.9065 151.459 65.1906 152.493 65.1906ZM193.594 53.1224L185.94 53.327C185.861 52.7815 185.645 52.2986 185.293 51.8781C184.94 51.4463 184.48 51.1111 183.912 50.8724C183.355 50.6224 182.707 50.4974 181.969 50.4974C181.003 50.4974 180.179 50.6906 179.497 51.077C178.827 51.4633 178.497 51.9861 178.509 52.6451C178.497 53.1565 178.702 53.5997 179.122 53.9747C179.554 54.3497 180.321 54.6508 181.423 54.8781L186.469 55.8326C189.082 56.3326 191.026 57.1622 192.298 58.3213C193.582 59.4804 194.23 61.0145 194.241 62.9236C194.23 64.719 193.696 66.2815 192.639 67.6111C191.594 68.9406 190.162 69.9747 188.344 70.7133C186.526 71.4406 184.446 71.8042 182.105 71.8042C178.366 71.8042 175.418 71.0372 173.259 69.5031C171.111 67.9576 169.884 65.8895 169.577 63.2986L177.81 63.094C177.991 64.0486 178.463 64.7758 179.224 65.2758C179.986 65.7758 180.957 66.0258 182.139 66.0258C183.207 66.0258 184.077 65.827 184.747 65.4292C185.418 65.0315 185.759 64.5031 185.77 63.844C185.759 63.2531 185.497 62.7815 184.986 62.4292C184.474 62.0656 183.673 61.7815 182.582 61.577L178.014 60.7076C175.389 60.2304 173.435 59.3497 172.151 58.0656C170.866 56.7701 170.23 55.1224 170.241 53.1224C170.23 51.3724 170.696 49.8781 171.639 48.6395C172.582 47.3895 173.923 46.4349 175.662 45.7758C177.401 45.1167 179.452 44.7872 181.815 44.7872C185.361 44.7872 188.156 45.5315 190.202 47.0201C192.247 48.4974 193.378 50.5315 193.594 53.1224Z" fill="white"/>
        <rect x="0.5" y="1.14872" width="15" height="15" rx="3.5" fill="#18181B" stroke="#27272A"/>
        <rect x="20.5" y="1.14872" width="15" height="15" rx="3.5" fill="#4C1D95" stroke="#6D28D9"/>
        <rect x="40.5" y="1.14872" width="15" height="15" rx="3.5" fill="#5B21B6" stroke="#7C3AED"/>
        <rect x="60.5" y="1.14872" width="15" height="15" rx="3.5" fill="#6D28D9" stroke="#8B5CF6"/>
        <rect x="80.5" y="1.14872" width="15" height="15" rx="3.5" fill="#7C3AED" stroke="#A78BFA"/>
        <rect x="100.5" y="1.14872" width="15" height="15" rx="3.5" fill="#8B5CF6" stroke="#C4B5FD"/>
        </svg>